<svg width="199" height="125" viewBox="0 0 199 125" fill="none" xmlns="http://www.w3.org/2000/svg">
<path d="M116.599 50.6651C153.145 65.5283 163.53 74.7173 167.551 92.3349C136.712 81.9083 125.348 72.8961 116.599 50.6651Z" fill="#2DABD3"/>
<path d="M33.2752 46.1562C43.4342 40.645 46.6541 34.8474 46.2409 17.7731C39.7765 18.2699 39.0182 33.2107 33.2752 46.1562Z" fill="#2DABD3"/>
<path d="M33.2752 46.1562C22.2989 47.3693 17.3674 44.1652 11.6108 28.7908C17.5158 25.3522 23.5452 38.1336 33.2752 46.1562Z" fill="#2DABD3"/>
<path d="M124.883 55.7411C106.028 64.8094 62.8685 58.7898 32.5902 45.6651C53.4305 84.9614 120.913 111.663 172.518 72.3664C209.237 45.6651 160.609 45.6651 124.883 55.7411Z" fill="#3FC1EB"/>
<path d="M74.599 107.335C111.145 92.4717 121.53 83.2827 125.551 65.6651C94.7124 76.0917 83.3477 85.1039 74.599 107.335Z" fill="#2DABD3"/>
<path d="M187.09 56.6651C193.097 10.8414 113.154 54.0311 55.5902 54.0311C98.7641 77.5201 136.035 80.1999 187.09 56.6651Z" fill="#038CB8"/>
</svg>
